# xmcd
#
# Track frame offsets:
#	150
#	16884
#	29524
#	43436
#	62025
#	77703
#	94956
#	113910
#	129980
#	143096
#	159413
#	178376
#	199090
#	217967
#	236899
#
# Disc length: 3370 seconds
#
# Revision: 1
# Processed by: cddbd v1.5.1PL0 Copyright (c) Steve Scherf et al.
# Submitted via: audiograbber 1.83.01
#
DISCID=d80d280f
DTITLE=Chartbuster - CBES210
DYEAR=1900
DGENRE=Karaoke
TTITLE0=Keith, Toby - How Do You Like Me Now
TTITLE1=Jackson, Alan - WWW.Memory
TTITLE2=tHE Dixie Chicks -  Let 'Er Rip
TTITLE3=Lonestar - Amazed
TTITLE4=Messina, Jo Dee - Bye Bye
TTITLE5=McGraw, Tim - My Next Thirty Years
TTITLE6=Womack, Lee Ann - I Hope You Dance
TTITLE7=Strait, George - The Best Day
TTITLE8=Elliott, Alecia - I'm Diggin' It
TTITLE9=Jones, George - Choices
TTITLE10=Andrews, Jessica - Unbreakable Heart
TTITLE11=Hill, Faith and Tim McGraw - Just To Hear You Say That You Love Me
TTITLE12=McBride, Martina - Whatever You Say
TTITLE13=Tritt, Travis - It's A Great Day To Be Alive
TTITLE14=SheDaisy - Little Good-byes
EXTD=
EXTT0=
EXTT1=
EXTT2=
EXTT3=
EXTT4=
EXTT5=
EXTT6=
EXTT7=
EXTT8=
EXTT9=
EXTT10=
EXTT11=
EXTT12=
EXTT13=
EXTT14=
PLAYORDER=
